<svg width="116" height="80" viewBox="0 0 116 80" fill="none" xmlns="http://www.w3.org/2000/svg">
<path d="M18.9524 35.7619C18.9524 37.0529 18.6561 38.2381 18.0635 39.3175C17.4709 40.3757 16.5608 41.2328 15.3333 41.8889C14.1058 42.545 12.582 42.873 10.7619 42.873H7.39683V50.873H1.96825V28.5873H10.7619C12.5397 28.5873 14.0423 28.8942 15.2698 29.508C16.4974 30.1217 17.418 30.9683 18.0317 32.0476C18.6455 33.127 18.9524 34.3651 18.9524 35.7619ZM10.3492 38.5556C11.3862 38.5556 12.1587 38.3122 12.6667 37.8254C13.1746 37.3387 13.4286 36.6508 13.4286 35.7619C13.4286 34.873 13.1746 34.1852 12.6667 33.6984C12.1587 33.2117 11.3862 32.9683 10.3492 32.9683H7.39683V38.5556H10.3492ZM58.9449 35.7619C58.9449 37.0529 58.6486 38.2381 58.0561 39.3175C57.4635 40.3757 56.5534 41.2328 55.3259 41.8889C54.0984 42.545 52.5746 42.873 50.7545 42.873H47.3894V50.873H41.9608V28.5873H50.7545C52.5322 28.5873 54.0349 28.8942 55.2624 29.508C56.4899 30.1217 57.4106 30.9683 58.0243 32.0476C58.6381 33.127 58.9449 34.3651 58.9449 35.7619ZM50.3418 38.5556C51.3788 38.5556 52.1513 38.3122 52.6592 37.8254C53.1672 37.3387 53.4211 36.6508 53.4211 35.7619C53.4211 34.873 53.1672 34.1852 52.6592 33.6984C52.1513 33.2117 51.3788 32.9683 50.3418 32.9683H47.3894V38.5556H50.3418ZM67.1997 32.9365V37.4445H74.4695V41.635H67.1997V46.5238H75.4219V50.873H61.7711V28.5873H75.4219V32.9365H67.1997ZM81.4859 51.127C80.5335 51.127 79.7504 50.8519 79.1367 50.3016C78.5441 49.7302 78.2478 49.0318 78.2478 48.2064C78.2478 47.3598 78.5441 46.6508 79.1367 46.0794C79.7504 45.508 80.5335 45.2223 81.4859 45.2223C82.4171 45.2223 83.179 45.508 83.7716 46.0794C84.3853 46.6508 84.6922 47.3598 84.6922 48.2064C84.6922 49.0318 84.3853 49.7302 83.7716 50.3016C83.179 50.8519 82.4171 51.127 81.4859 51.127ZM90.6359 31.3175C89.6835 31.3175 88.9005 31.0424 88.2867 30.4921C87.6941 29.9207 87.3978 29.2223 87.3978 28.3969C87.3978 27.5503 87.6941 26.8519 88.2867 26.3016C88.9005 25.7302 89.6835 25.4445 90.6359 25.4445C91.5671 25.4445 92.329 25.7302 92.9216 26.3016C93.5354 26.8519 93.8423 27.5503 93.8423 28.3969C93.8423 29.2223 93.5354 29.9207 92.9216 30.4921C92.329 31.0424 91.5671 31.3175 90.6359 31.3175ZM93.3343 33.1588V50.873H87.9058V33.1588H93.3343ZM105.332 51.127C103.596 51.127 102.03 50.7566 100.633 50.0159C99.2578 49.2752 98.1678 48.217 97.3636 46.8413C96.5805 45.4656 96.189 43.8572 96.189 42.0159C96.189 40.1958 96.5911 38.5979 97.3953 37.2223C98.1996 35.8254 99.3001 34.7566 100.697 34.0159C102.094 33.2752 103.66 32.9048 105.395 32.9048C107.131 32.9048 108.697 33.2752 110.094 34.0159C111.491 34.7566 112.591 35.8254 113.395 37.2223C114.2 38.5979 114.602 40.1958 114.602 42.0159C114.602 43.836 114.189 45.4445 113.364 46.8413C112.559 48.217 111.448 49.2752 110.03 50.0159C108.633 50.7566 107.067 51.127 105.332 51.127ZM105.332 46.4286C106.369 46.4286 107.247 46.0476 107.967 45.2857C108.708 44.5238 109.078 43.4339 109.078 42.0159C109.078 40.5979 108.718 39.508 107.999 38.7461C107.3 37.9842 106.432 37.6032 105.395 37.6032C104.337 37.6032 103.459 37.9842 102.76 38.7461C102.062 39.4868 101.713 40.5768 101.713 42.0159C101.713 43.4339 102.051 44.5238 102.729 45.2857C103.427 46.0476 104.295 46.4286 105.332 46.4286Z" fill="white"/>
<path d="M36.6032 23.508V45.7937H31.1746V23.508H36.6032Z" fill="#BFDBBF"/>
<path d="M28.3492 12.7143V35H22.9206V12.7143H28.3492Z" fill="#BFDBBF"/>
</svg>
