<svg width="71" height="79" viewBox="0 0 71 79" fill="none" xmlns="http://www.w3.org/2000/svg">
<g clip-path="url(#clip0_170_2991)">
<path d="M67.7074 48.73H64.9157V33.1989C68.4684 31.7011 71 27.8928 71 23.4165C71 17.6338 66.7857 12.9489 61.5887 12.9489C57.5962 12.9489 54.185 15.719 52.8274 19.6209H46.4487V19.2422C46.4487 17.221 44.9802 15.5828 43.1637 15.5828H23.2779C21.4614 15.5828 19.9929 17.2253 19.9929 19.2422V19.6167H13.6371V12.4426C13.6371 10.4214 12.1648 8.7832 10.3521 8.7832H4.742C2.92551 8.7832 1.45702 10.4214 1.45702 12.4426V34.5648C1.45702 36.5902 2.92933 38.2199 4.742 38.2199H10.3521C12.1648 38.2199 13.6371 36.586 13.6371 34.5648V25.1057H19.9967V25.4844C19.9967 27.5056 21.4652 29.1438 23.2817 29.1438H43.1637C44.984 29.1438 46.4487 27.5056 46.4487 25.4844V25.1057H52.3112C52.9536 29.497 56.0474 32.9691 59.9825 33.7223V48.73H47.8254C46.0089 48.73 44.5404 50.3682 44.5404 52.3809V52.7596H37.6721V44.4409C37.6721 42.4239 36.196 40.7857 34.3833 40.7857H28.7732C26.9567 40.7857 25.4883 42.4282 25.4883 44.4409V52.7596H18.4823C17.3963 48.3087 13.7518 45.0366 9.41134 45.0366C4.21426 45.0366 0 49.7257 0 55.5041C0 61.2868 4.21426 65.9716 9.41134 65.9716C13.7556 65.9716 17.3963 62.6994 18.4823 58.2486H25.4883V66.5673C25.4883 68.5927 26.9606 70.2224 28.7732 70.2224H34.3833C36.196 70.2224 37.6721 68.5885 37.6721 66.5673V58.2486H44.5404V58.6273C44.5404 60.6527 46.0127 62.2824 47.8254 62.2824H67.7074C69.5277 62.2824 70.9962 60.6485 70.9962 58.6273V52.3851C70.9962 50.3682 69.5239 48.73 67.7074 48.73Z" fill="white"/>
</g>
<defs>
<clipPath id="clip0_170_2991">
<rect width="71" height="79" fill="white"/>
</clipPath>
</defs>
</svg>
