<svg width="22" height="13" viewBox="0 0 22 13" fill="none" xmlns="http://www.w3.org/2000/svg">
<path d="M11.3152 12.622C5.54023 12.622 1.08523 7.2357 0.878984 7.0032C0.631484 6.6932 0.631484 6.3057 0.878984 5.9957C1.08523 5.7632 5.54023 0.376953 11.3152 0.376953C17.0902 0.376953 21.5452 5.7632 21.7515 5.9957C21.999 6.3057 21.999 6.6932 21.7515 7.0032C21.5452 7.2357 17.049 12.622 11.3152 12.622ZM2.69398 6.49945C3.89023 7.7782 7.35523 10.9945 11.3152 10.9945C15.2752 10.9945 18.7402 7.7782 19.9365 6.49945C18.7402 5.2207 15.2752 2.00445 11.3152 2.00445C7.35523 2.00445 3.89023 5.2207 2.69398 6.49945ZM11.3152 10.3745C9.04648 10.3745 7.19023 8.6307 7.19023 6.49945C7.19023 4.3682 9.04648 2.62445 11.3152 2.62445C13.584 2.62445 15.4402 4.3682 15.4402 6.49945C15.4402 8.6307 13.5427 10.3745 11.3152 10.3745ZM11.3152 4.25195C9.99523 4.25195 8.92273 5.25945 8.92273 6.49945C8.92273 7.73945 9.99523 8.74695 11.3152 8.74695C12.6352 8.74695 13.7077 7.73945 13.7077 6.49945C13.7077 5.25945 12.6352 4.25195 11.3152 4.25195Z" fill="#808080"/>
</svg>
